<?xml version="1.0" encoding="UTF-8" standalone="no"?>
<!DOCTYPE svg PUBLIC "-//W3C//DTD SVG 1.1//EN"
 "http://www.w3.org/Graphics/SVG/1.1/DTD/svg11.dtd">
<!-- Generated by graphviz version 5.0.0 (20220707.1540)
 -->
<!-- Title: StorageDiagram Pages: 1 -->
<svg width="2141pt" height="850pt"
 viewBox="0.00 0.00 2141.12 850.00" xmlns="http://www.w3.org/2000/svg" xmlns:xlink="http://www.w3.org/1999/xlink">
<g id="graph0" class="graph" transform="scale(1 1) rotate(0) translate(4 846)">
<title>StorageDiagram</title>
<polygon fill="white" stroke="transparent" points="-4,4 -4,-846 2137.12,-846 2137.12,4 -4,4"/>
<!-- 8 -->
<g id="node1" class="node">
<title>8</title>
<polygon fill="#f2f2f2" stroke="black" points="0,-226.1 0,-697.3 870.53,-697.3 870.53,-226.1 0,-226.1"/>
<text text-anchor="middle" x="435.27" y="-680.7" font-family="Courier New" font-size="14.00">StrategyRouter &lt;&lt;Contract&gt;&gt;</text>
<polyline fill="none" stroke="black" points="0,-672.5 870.53,-672.5 "/>
<text text-anchor="middle" x="33.2" y="-655.9" font-family="Courier New" font-size="14.00">slot</text>
<polyline fill="none" stroke="black" points="0,-647.7 66.41,-647.7 "/>
<text text-anchor="middle" x="33.2" y="-631.1" font-family="Courier New" font-size="14.00">0</text>
<polyline fill="none" stroke="black" points="0,-622.9 66.41,-622.9 "/>
<text text-anchor="middle" x="33.2" y="-606.3" font-family="Courier New" font-size="14.00">1&#45;50</text>
<polyline fill="none" stroke="black" points="0,-598.1 66.41,-598.1 "/>
<text text-anchor="middle" x="33.2" y="-581.5" font-family="Courier New" font-size="14.00">51&#45;100</text>
<polyline fill="none" stroke="black" points="0,-573.3 66.41,-573.3 "/>
<text text-anchor="middle" x="33.2" y="-556.7" font-family="Courier New" font-size="14.00">101</text>
<polyline fill="none" stroke="black" points="0,-548.5 66.41,-548.5 "/>
<text text-anchor="middle" x="33.2" y="-531.9" font-family="Courier New" font-size="14.00">102</text>
<polyline fill="none" stroke="black" points="0,-523.7 66.41,-523.7 "/>
<text text-anchor="middle" x="33.2" y="-507.1" font-family="Courier New" font-size="14.00">103</text>
<polyline fill="none" stroke="black" points="0,-498.9 66.41,-498.9 "/>
<text text-anchor="middle" x="33.2" y="-482.3" font-family="Courier New" font-size="14.00">104</text>
<polyline fill="none" stroke="black" points="0,-474.1 66.41,-474.1 "/>
<text text-anchor="middle" x="33.2" y="-457.5" font-family="Courier New" font-size="14.00">105</text>
<polyline fill="none" stroke="black" points="0,-449.3 66.41,-449.3 "/>
<text text-anchor="middle" x="33.2" y="-432.7" font-family="Courier New" font-size="14.00">106</text>
<polyline fill="none" stroke="black" points="0,-424.5 66.41,-424.5 "/>
<text text-anchor="middle" x="33.2" y="-407.9" font-family="Courier New" font-size="14.00">107</text>
<polyline fill="none" stroke="black" points="0,-399.7 66.41,-399.7 "/>
<text text-anchor="middle" x="33.2" y="-383.1" font-family="Courier New" font-size="14.00">108</text>
<polyline fill="none" stroke="black" points="0,-374.9 66.41,-374.9 "/>
<text text-anchor="middle" x="33.2" y="-358.3" font-family="Courier New" font-size="14.00">109</text>
<polyline fill="none" stroke="black" points="0,-350.1 66.41,-350.1 "/>
<text text-anchor="middle" x="33.2" y="-333.5" font-family="Courier New" font-size="14.00">110</text>
<polyline fill="none" stroke="black" points="0,-325.3 66.41,-325.3 "/>
<text text-anchor="middle" x="33.2" y="-308.7" font-family="Courier New" font-size="14.00">111</text>
<polyline fill="none" stroke="black" points="0,-300.5 66.41,-300.5 "/>
<text text-anchor="middle" x="33.2" y="-283.9" font-family="Courier New" font-size="14.00">112</text>
<polyline fill="none" stroke="black" points="0,-275.7 66.41,-275.7 "/>
<text text-anchor="middle" x="33.2" y="-259.1" font-family="Courier New" font-size="14.00">113</text>
<polyline fill="none" stroke="black" points="0,-250.9 66.41,-250.9 "/>
<text text-anchor="middle" x="33.2" y="-234.3" font-family="Courier New" font-size="14.00">114</text>
<polyline fill="none" stroke="black" points="66.41,-226.1 66.41,-672.5 "/>
<text text-anchor="middle" x="468.47" y="-655.9" font-family="Courier New" font-size="14.00">type: &lt;inherited contract&gt;.variable (bytes)</text>
<polyline fill="none" stroke="black" points="66.41,-647.7 870.53,-647.7 "/>
<text text-anchor="middle" x="141.62" y="-631.1" font-family="Courier New" font-size="14.00">unallocated (30)</text>
<polyline fill="none" stroke="black" points="216.83,-622.9 216.83,-647.7 "/>
<text text-anchor="middle" x="380.26" y="-631.1" font-family="Courier New" font-size="14.00">bool: Initializable._initializing (1)</text>
<polyline fill="none" stroke="black" points="543.68,-622.9 543.68,-647.7 "/>
<text text-anchor="middle" x="707.11" y="-631.1" font-family="Courier New" font-size="14.00">uint8: Initializable._initialized (1)</text>
<polyline fill="none" stroke="black" points="66.41,-622.9 870.53,-622.9 "/>
<text text-anchor="middle" x="468.14" y="-606.3" font-family="Courier New" font-size="14.00">uint256[50]: ERC1967UpgradeUpgradeable.__gap (1600)</text>
<polyline fill="none" stroke="black" points="66.41,-598.1 870.53,-598.1 "/>
<text text-anchor="middle" x="468.14" y="-581.5" font-family="Courier New" font-size="14.00">uint256[50]: UUPSUpgradeable.__gap (1600)</text>
<polyline fill="none" stroke="black" points="66.41,-573.3 870.53,-573.3 "/>
<text text-anchor="middle" x="468.44" y="-556.7" font-family="Courier New" font-size="14.00">uint256: currentCycleFirstDepositAt (32)</text>
<polyline fill="none" stroke="black" points="66.41,-548.5 870.53,-548.5 "/>
<text text-anchor="middle" x="468.23" y="-531.9" font-family="Courier New" font-size="14.00">uint256: allocationWindowTime (32)</text>
<polyline fill="none" stroke="black" points="66.41,-523.7 870.53,-523.7 "/>
<text text-anchor="middle" x="468.03" y="-507.1" font-family="Courier New" font-size="14.00">uint256: currentCycleId (32)</text>
<polyline fill="none" stroke="black" points="66.41,-498.9 870.53,-498.9 "/>
<text text-anchor="middle" x="468.23" y="-482.3" font-family="Courier New" font-size="14.00">uint256: currentCycleDepositsCount (32)</text>
<polyline fill="none" stroke="black" points="66.41,-474.1 870.53,-474.1 "/>
<text text-anchor="middle" x="468.33" y="-457.5" font-family="Courier New" font-size="14.00">ReceiptNFT: receiptContract (32)</text>
<polyline fill="none" stroke="black" points="66.41,-449.3 870.53,-449.3 "/>
<text text-anchor="middle" x="468.02" y="-432.7" font-family="Courier New" font-size="14.00">Exchange: exchange (32)</text>
<polyline fill="none" stroke="black" points="66.41,-424.5 870.53,-424.5 "/>
<text text-anchor="middle" x="252.62" y="-407.9" font-family="Courier New" font-size="14.00">unallocated (12)</text>
<polyline fill="none" stroke="black" points="438.83,-399.7 438.83,-424.5 "/>
<text text-anchor="middle" x="654.45" y="-407.9" font-family="Courier New" font-size="14.00">IUsdOracle: oracle (20)</text>
<polyline fill="none" stroke="black" points="66.41,-399.7 870.53,-399.7 "/>
<text text-anchor="middle" x="468.23" y="-383.1" font-family="Courier New" font-size="14.00">SharesToken: sharesToken (32)</text>
<polyline fill="none" stroke="black" points="66.41,-374.9 870.53,-374.9 "/>
<text text-anchor="middle" x="468.32" y="-358.3" font-family="Courier New" font-size="14.00">Batch: batch (32)</text>
<polyline fill="none" stroke="black" points="66.41,-350.1 870.53,-350.1 "/>
<text text-anchor="middle" x="250.62" y="-333.5" font-family="Courier New" font-size="14.00">unallocated (12)</text>
<polyline fill="none" stroke="black" points="434.83,-325.3 434.83,-350.1 "/>
<text text-anchor="middle" x="652.65" y="-333.5" font-family="Courier New" font-size="14.00">address: moderator (20)</text>
<polyline fill="none" stroke="black" points="66.41,-325.3 870.53,-325.3 "/>
<text text-anchor="middle" x="468.13" y="-308.7" font-family="Courier New" font-size="14.00">StrategyInfo[]: strategies (32)</text>
<polyline fill="none" stroke="black" points="66.41,-300.5 870.53,-300.5 "/>
<text text-anchor="middle" x="468.13" y="-283.9" font-family="Courier New" font-size="14.00">uint256: allStrategiesWeightSum (32)</text>
<polyline fill="none" stroke="black" points="66.41,-275.7 870.53,-275.7 "/>
<text text-anchor="middle" x="468.23" y="-259.1" font-family="Courier New" font-size="14.00">IdleStrategyInfo[]: idleStrategies (32)</text>
<polyline fill="none" stroke="black" points="66.41,-250.9 870.53,-250.9 "/>
<text text-anchor="middle" x="468.13" y="-234.3" font-family="Courier New" font-size="14.00">mapping(uint256=&gt;Cycle): cycles (32)</text>
</g>
<!-- 1 -->
<g id="node2" class="node">
<title>1</title>
<polygon fill="#f2f2f2" stroke="black" points="1090.96,-667.9 1090.96,-841.5 1342.2,-841.5 1342.2,-667.9 1090.96,-667.9"/>
<text text-anchor="middle" x="1216.58" y="-824.9" font-family="Courier New" font-size="14.00">uint256[50]: __gap &lt;&lt;Array&gt;&gt;</text>
<polyline fill="none" stroke="black" points="1090.96,-816.7 1342.2,-816.7 "/>
<text text-anchor="middle" x="1115.76" y="-800.1" font-family="Courier New" font-size="14.00">slot</text>
<polyline fill="none" stroke="black" points="1090.96,-791.9 1140.57,-791.9 "/>
<text text-anchor="middle" x="1115.76" y="-775.3" font-family="Courier New" font-size="14.00">1</text>
<polyline fill="none" stroke="black" points="1090.96,-767.1 1140.57,-767.1 "/>
<text text-anchor="middle" x="1115.76" y="-750.5" font-family="Courier New" font-size="14.00">2</text>
<polyline fill="none" stroke="black" points="1090.96,-742.3 1140.57,-742.3 "/>
<text text-anchor="middle" x="1115.76" y="-725.7" font-family="Courier New" font-size="14.00">3&#45;48</text>
<polyline fill="none" stroke="black" points="1090.96,-717.5 1140.57,-717.5 "/>
<text text-anchor="middle" x="1115.76" y="-700.9" font-family="Courier New" font-size="14.00">49</text>
<polyline fill="none" stroke="black" points="1090.96,-692.7 1140.57,-692.7 "/>
<text text-anchor="middle" x="1115.76" y="-676.1" font-family="Courier New" font-size="14.00">50</text>
<polyline fill="none" stroke="black" points="1140.57,-667.9 1140.57,-816.7 "/>
<text text-anchor="middle" x="1240.98" y="-800.1" font-family="Courier New" font-size="14.00">type: variable (bytes)</text>
<polyline fill="none" stroke="black" points="1140.57,-791.9 1341.4,-791.9 "/>
<text text-anchor="middle" x="1240.97" y="-775.3" font-family="Courier New" font-size="14.00">uint256 (32)</text>
<polyline fill="none" stroke="black" points="1140.57,-767.1 1341.4,-767.1 "/>
<text text-anchor="middle" x="1240.97" y="-750.5" font-family="Courier New" font-size="14.00">uint256 (32)</text>
<polyline fill="none" stroke="black" points="1140.57,-742.3 1341.4,-742.3 "/>
<text text-anchor="middle" x="1240.77" y="-725.7" font-family="Courier New" font-size="14.00">&#45;&#45;&#45;&#45; (1472)</text>
<polyline fill="none" stroke="black" points="1140.57,-717.5 1341.4,-717.5 "/>
<text text-anchor="middle" x="1240.97" y="-700.9" font-family="Courier New" font-size="14.00">uint256 (32)</text>
<polyline fill="none" stroke="black" points="1140.57,-692.7 1341.4,-692.7 "/>
<text text-anchor="middle" x="1240.97" y="-676.1" font-family="Courier New" font-size="14.00">uint256 (32)</text>
</g>
<!-- 8&#45;&gt;1 -->
<g id="edge1" class="edge">
<title>8:8&#45;&gt;1</title>
<path fill="none" stroke="black" d="M870.53,-610.7C896.84,-610.7 884.97,-642.61 906.53,-657.7 958.03,-693.74 1023.48,-716.81 1080.88,-731.35"/>
<polygon fill="black" stroke="black" points="1080.21,-734.79 1090.76,-733.79 1081.89,-727.99 1080.21,-734.79"/>
</g>
<!-- 2 -->
<g id="node3" class="node">
<title>2</title>
<polygon fill="#f2f2f2" stroke="black" points="1087.16,-474.9 1087.16,-648.5 1346,-648.5 1346,-474.9 1087.16,-474.9"/>
<text text-anchor="middle" x="1216.58" y="-631.9" font-family="Courier New" font-size="14.00">uint256[50]: __gap &lt;&lt;Array&gt;&gt;</text>
<polyline fill="none" stroke="black" points="1087.16,-623.7 1346,-623.7 "/>
<text text-anchor="middle" x="1116.16" y="-607.1" font-family="Courier New" font-size="14.00">slot</text>
<polyline fill="none" stroke="black" points="1087.16,-598.9 1145.17,-598.9 "/>
<text text-anchor="middle" x="1116.16" y="-582.3" font-family="Courier New" font-size="14.00">51</text>
<polyline fill="none" stroke="black" points="1087.16,-574.1 1145.17,-574.1 "/>
<text text-anchor="middle" x="1116.16" y="-557.5" font-family="Courier New" font-size="14.00">52</text>
<polyline fill="none" stroke="black" points="1087.16,-549.3 1145.17,-549.3 "/>
<text text-anchor="middle" x="1116.16" y="-532.7" font-family="Courier New" font-size="14.00">53&#45;98</text>
<polyline fill="none" stroke="black" points="1087.16,-524.5 1145.17,-524.5 "/>
<text text-anchor="middle" x="1116.16" y="-507.9" font-family="Courier New" font-size="14.00">99</text>
<polyline fill="none" stroke="black" points="1087.16,-499.7 1145.17,-499.7 "/>
<text text-anchor="middle" x="1116.16" y="-483.1" font-family="Courier New" font-size="14.00">100</text>
<polyline fill="none" stroke="black" points="1145.17,-474.9 1145.17,-623.7 "/>
<text text-anchor="middle" x="1245.58" y="-607.1" font-family="Courier New" font-size="14.00">type: variable (bytes)</text>
<polyline fill="none" stroke="black" points="1145.17,-598.9 1346,-598.9 "/>
<text text-anchor="middle" x="1245.58" y="-582.3" font-family="Courier New" font-size="14.00">uint256 (32)</text>
<polyline fill="none" stroke="black" points="1145.17,-574.1 1346,-574.1 "/>
<text text-anchor="middle" x="1245.58" y="-557.5" font-family="Courier New" font-size="14.00">uint256 (32)</text>
<polyline fill="none" stroke="black" points="1145.17,-549.3 1346,-549.3 "/>
<text text-anchor="middle" x="1245.38" y="-532.7" font-family="Courier New" font-size="14.00">&#45;&#45;&#45;&#45; (1472)</text>
<polyline fill="none" stroke="black" points="1145.17,-524.5 1346,-524.5 "/>
<text text-anchor="middle" x="1245.58" y="-507.9" font-family="Courier New" font-size="14.00">uint256 (32)</text>
<polyline fill="none" stroke="black" points="1145.17,-499.7 1346,-499.7 "/>
<text text-anchor="middle" x="1245.58" y="-483.1" font-family="Courier New" font-size="14.00">uint256 (32)</text>
</g>
<!-- 8&#45;&gt;2 -->
<g id="edge2" class="edge">
<title>8:14&#45;&gt;2</title>
<path fill="none" stroke="black" d="M870.53,-585.7C938.65,-585.7 1014.14,-580.99 1077.1,-575.74"/>
<polygon fill="black" stroke="black" points="1077.43,-579.22 1087.1,-574.89 1076.84,-572.25 1077.43,-579.22"/>
</g>
<!-- 4 -->
<g id="node5" class="node">
<title>4</title>
<polygon fill="#f2f2f2" stroke="black" points="931.33,-341.1 931.33,-432.3 1501.82,-432.3 1501.82,-341.1 931.33,-341.1"/>
<text text-anchor="middle" x="1216.58" y="-415.7" font-family="Courier New" font-size="14.00">StrategyInfo[]: strategies &lt;&lt;Array&gt;&gt;</text>
<text text-anchor="middle" x="1216.58" y="-398.9" font-family="Courier New" font-size="14.00">0x39f2babe526038520877fc7c33d81accf578af4a06c5fa6b0d038cae36e12711</text>
<polyline fill="none" stroke="black" points="931.33,-390.7 1501.82,-390.7 "/>
<text text-anchor="middle" x="1040.04" y="-374.1" font-family="Courier New" font-size="14.00">offset</text>
<polyline fill="none" stroke="black" points="931.33,-365.9 1148.74,-365.9 "/>
<text text-anchor="middle" x="1040.04" y="-349.3" font-family="Courier New" font-size="14.00">0&#45;3</text>
<polyline fill="none" stroke="black" points="1148.74,-341.1 1148.74,-390.7 "/>
<text text-anchor="middle" x="1325.16" y="-374.1" font-family="Courier New" font-size="14.00">type: variable (bytes)</text>
<polyline fill="none" stroke="black" points="1148.74,-365.9 1501.57,-365.9 "/>
<text text-anchor="middle" x="1324.85" y="-349.3" font-family="Courier New" font-size="14.00">StrategyInfo (128)</text>
</g>
<!-- 8&#45;&gt;4 -->
<g id="edge3" class="edge">
<title>8:30&#45;&gt;4</title>
<path fill="none" stroke="black" d="M870.53,-312.7C878.4,-312.7 935.51,-324.62 1001.08,-338.88"/>
<polygon fill="black" stroke="black" points="1000.73,-342.39 1011.24,-341.1 1002.22,-335.55 1000.73,-342.39"/>
</g>
<!-- 6 -->
<g id="node7" class="node">
<title>6</title>
<polygon fill="#f2f2f2" stroke="black" points="931.33,-218.1 931.33,-309.3 1501.82,-309.3 1501.82,-218.1 931.33,-218.1"/>
<text text-anchor="middle" x="1216.58" y="-292.7" font-family="Courier New" font-size="14.00">IdleStrategyInfo[]: idleStrategies &lt;&lt;Array&gt;&gt;</text>
<text text-anchor="middle" x="1216.58" y="-275.9" font-family="Courier New" font-size="14.00">0xa1fcd19bfe8c32a61095b6bfbb2664842857e148fcbb5188386c8cd40348d5b6</text>
<polyline fill="none" stroke="black" points="931.33,-267.7 1501.82,-267.7 "/>
<text text-anchor="middle" x="1040.04" y="-251.1" font-family="Courier New" font-size="14.00">offset</text>
<polyline fill="none" stroke="black" points="931.33,-242.9 1148.74,-242.9 "/>
<text text-anchor="middle" x="1040.04" y="-226.3" font-family="Courier New" font-size="14.00">0&#45;1</text>
<polyline fill="none" stroke="black" points="1148.74,-218.1 1148.74,-267.7 "/>
<text text-anchor="middle" x="1325.16" y="-251.1" font-family="Courier New" font-size="14.00">type: variable (bytes)</text>
<polyline fill="none" stroke="black" points="1148.74,-242.9 1501.57,-242.9 "/>
<text text-anchor="middle" x="1324.96" y="-226.3" font-family="Courier New" font-size="14.00">IdleStrategyInfo (64)</text>
</g>
<!-- 8&#45;&gt;6 -->
<g id="edge4" class="edge">
<title>8:35&#45;&gt;6</title>
<path fill="none" stroke="black" d="M870.53,-263.7C887.06,-263.7 904.03,-263.7 921.15,-263.7"/>
<polygon fill="black" stroke="black" points="921.25,-267.2 931.25,-263.7 921.25,-260.2 921.25,-267.2"/>
</g>
<!-- 7 -->
<g id="node8" class="node">
<title>7</title>
<polygon fill="#f2f2f2" stroke="black" points="906.53,-0.5 906.53,-198.9 1526.63,-198.9 1526.63,-0.5 906.53,-0.5"/>
<text text-anchor="middle" x="1216.58" y="-182.3" font-family="Courier New" font-size="14.00">Cycle &lt;&lt;Struct&gt;&gt;</text>
<polyline fill="none" stroke="black" points="906.53,-174.1 1526.63,-174.1 "/>
<text text-anchor="middle" x="939.74" y="-157.5" font-family="Courier New" font-size="14.00">offset</text>
<polyline fill="none" stroke="black" points="906.53,-149.3 972.94,-149.3 "/>
<text text-anchor="middle" x="939.74" y="-132.7" font-family="Courier New" font-size="14.00">0</text>
<polyline fill="none" stroke="black" points="906.53,-124.5 972.94,-124.5 "/>
<text text-anchor="middle" x="939.74" y="-107.9" font-family="Courier New" font-size="14.00">1</text>
<polyline fill="none" stroke="black" points="906.53,-99.7 972.94,-99.7 "/>
<text text-anchor="middle" x="939.74" y="-83.1" font-family="Courier New" font-size="14.00">2</text>
<polyline fill="none" stroke="black" points="906.53,-74.9 972.94,-74.9 "/>
<text text-anchor="middle" x="939.74" y="-58.3" font-family="Courier New" font-size="14.00">3</text>
<polyline fill="none" stroke="black" points="906.53,-50.1 972.94,-50.1 "/>
<text text-anchor="middle" x="939.74" y="-33.5" font-family="Courier New" font-size="14.00">4</text>
<polyline fill="none" stroke="black" points="906.53,-25.3 972.94,-25.3 "/>
<text text-anchor="middle" x="939.74" y="-8.7" font-family="Courier New" font-size="14.00">5</text>
<polyline fill="none" stroke="black" points="972.94,-0.5 972.94,-174.1 "/>
<text text-anchor="middle" x="1249.78" y="-157.5" font-family="Courier New" font-size="14.00">type: variable (bytes)</text>
<polyline fill="none" stroke="black" points="972.94,-149.3 1526.63,-149.3 "/>
<text text-anchor="middle" x="1249.65" y="-132.7" font-family="Courier New" font-size="14.00">uint256: startAt (32)</text>
<polyline fill="none" stroke="black" points="972.94,-124.5 1526.63,-124.5 "/>
<text text-anchor="middle" x="1249.56" y="-107.9" font-family="Courier New" font-size="14.00">uint256: totalDepositedInUsd (32)</text>
<polyline fill="none" stroke="black" points="972.94,-99.7 1526.63,-99.7 "/>
<text text-anchor="middle" x="1249.77" y="-83.1" font-family="Courier New" font-size="14.00">uint256: receivedByStrategiesInUsd (32)</text>
<polyline fill="none" stroke="black" points="972.94,-74.9 1526.63,-74.9 "/>
<text text-anchor="middle" x="1249.78" y="-58.3" font-family="Courier New" font-size="14.00">uint256: strategiesBalanceWithCompoundAndBatchDepositsInUsd (32)</text>
<polyline fill="none" stroke="black" points="972.94,-50.1 1526.63,-50.1 "/>
<text text-anchor="middle" x="1249.36" y="-33.5" font-family="Courier New" font-size="14.00">uint256: pricePerShare (32)</text>
<polyline fill="none" stroke="black" points="972.94,-25.3 1526.63,-25.3 "/>
<text text-anchor="middle" x="1249.57" y="-8.7" font-family="Courier New" font-size="14.00">mapping(address=&gt;uint256): prices (32)</text>
</g>
<!-- 8&#45;&gt;7 -->
<g id="edge5" class="edge">
<title>8:42&#45;&gt;7</title>
<path fill="none" stroke="black" d="M870.53,-238.7C891.36,-238.7 888.42,-218.99 906.53,-208.7 909.44,-207.05 912.37,-205.41 915.33,-203.8"/>
<polygon fill="black" stroke="black" points="917.13,-206.81 924.3,-199.01 913.83,-200.64 917.13,-206.81"/>
</g>
<!-- 3 -->
<g id="node4" class="node">
<title>3</title>
<polygon fill="#f2f2f2" stroke="black" points="1562.63,-295.9 1562.63,-461.5 2133.12,-461.5 2133.12,-295.9 1562.63,-295.9"/>
<text text-anchor="middle" x="1847.87" y="-444.9" font-family="Courier New" font-size="14.00">StrategyInfo &lt;&lt;Struct&gt;&gt;</text>
<text text-anchor="middle" x="1847.87" y="-428.1" font-family="Courier New" font-size="14.00">0x39f2babe526038520877fc7c33d81accf578af4a06c5fa6b0d038cae36e12711</text>
<polyline fill="none" stroke="black" points="1562.63,-419.9 2133.12,-419.9 "/>
<text text-anchor="middle" x="1616.83" y="-403.3" font-family="Courier New" font-size="14.00">offset</text>
<polyline fill="none" stroke="black" points="1562.63,-395.1 1671.04,-395.1 "/>
<text text-anchor="middle" x="1616.83" y="-378.5" font-family="Courier New" font-size="14.00">0</text>
<polyline fill="none" stroke="black" points="1562.63,-370.3 1671.04,-370.3 "/>
<text text-anchor="middle" x="1616.83" y="-353.7" font-family="Courier New" font-size="14.00">1</text>
<polyline fill="none" stroke="black" points="1562.63,-345.5 1671.04,-345.5 "/>
<text text-anchor="middle" x="1616.83" y="-328.9" font-family="Courier New" font-size="14.00">2</text>
<polyline fill="none" stroke="black" points="1562.63,-320.7 1671.04,-320.7 "/>
<text text-anchor="middle" x="1616.83" y="-304.1" font-family="Courier New" font-size="14.00">3</text>
<polyline fill="none" stroke="black" points="1671.04,-295.9 1671.04,-419.9 "/>
<text text-anchor="middle" x="1901.67" y="-403.3" font-family="Courier New" font-size="14.00">type: variable (bytes)</text>
<polyline fill="none" stroke="black" points="1671.04,-395.1 2132.3,-395.1 "/>
<text text-anchor="middle" x="1758.75" y="-378.5" font-family="Courier New" font-size="14.00">unallocated (12)</text>
<polyline fill="none" stroke="black" points="1846.46,-370.3 1846.46,-395.1 "/>
<text text-anchor="middle" x="1989.28" y="-378.5" font-family="Courier New" font-size="14.00">address: strategyAddress (20)</text>
<polyline fill="none" stroke="black" points="1671.04,-370.3 2132.3,-370.3 "/>
<text text-anchor="middle" x="1765.25" y="-353.7" font-family="Courier New" font-size="14.00">unallocated (12)</text>
<polyline fill="none" stroke="black" points="1859.46,-345.5 1859.46,-370.3 "/>
<text text-anchor="middle" x="1995.67" y="-353.7" font-family="Courier New" font-size="14.00">address: depositToken (20)</text>
<polyline fill="none" stroke="black" points="1671.04,-345.5 2132.3,-345.5 "/>
<text text-anchor="middle" x="1901.67" y="-328.9" font-family="Courier New" font-size="14.00">uint256: depositTokenInSupportedTokensIndex (32)</text>
<polyline fill="none" stroke="black" points="1671.04,-320.7 2132.3,-320.7 "/>
<text text-anchor="middle" x="1901.55" y="-304.1" font-family="Courier New" font-size="14.00">uint256: weight (32)</text>
</g>
<!-- 4&#45;&gt;3 -->
<g id="edge6" class="edge">
<title>4:29&#45;&gt;3</title>
<path fill="none" stroke="black" d="M1501.58,-353.7C1518.16,-353.7 1535.18,-353.99 1552.34,-354.51"/>
<polygon fill="black" stroke="black" points="1552.35,-358.01 1562.46,-354.84 1552.58,-351.01 1552.35,-358.01"/>
</g>
<!-- 5 -->
<g id="node6" class="node">
<title>5</title>
<polygon fill="#f2f2f2" stroke="black" points="1562.63,-160.7 1562.63,-276.7 2133.12,-276.7 2133.12,-160.7 1562.63,-160.7"/>
<text text-anchor="middle" x="1847.87" y="-260.1" font-family="Courier New" font-size="14.00">IdleStrategyInfo &lt;&lt;Struct&gt;&gt;</text>
<text text-anchor="middle" x="1847.87" y="-243.3" font-family="Courier New" font-size="14.00">0xa1fcd19bfe8c32a61095b6bfbb2664842857e148fcbb5188386c8cd40348d5b6</text>
<polyline fill="none" stroke="black" points="1562.63,-235.1 2133.12,-235.1 "/>
<text text-anchor="middle" x="1619.33" y="-218.5" font-family="Courier New" font-size="14.00">offset</text>
<polyline fill="none" stroke="black" points="1562.63,-210.3 1676.04,-210.3 "/>
<text text-anchor="middle" x="1619.33" y="-193.7" font-family="Courier New" font-size="14.00">0</text>
<polyline fill="none" stroke="black" points="1562.63,-185.5 1676.04,-185.5 "/>
<text text-anchor="middle" x="1619.33" y="-168.9" font-family="Courier New" font-size="14.00">1</text>
<polyline fill="none" stroke="black" points="1676.04,-160.7 1676.04,-235.1 "/>
<text text-anchor="middle" x="1904.57" y="-218.5" font-family="Courier New" font-size="14.00">type: variable (bytes)</text>
<polyline fill="none" stroke="black" points="1676.04,-210.3 2133.1,-210.3 "/>
<text text-anchor="middle" x="1762.75" y="-193.7" font-family="Courier New" font-size="14.00">unallocated (12)</text>
<polyline fill="none" stroke="black" points="1849.46,-185.5 1849.46,-210.3 "/>
<text text-anchor="middle" x="1991.28" y="-193.7" font-family="Courier New" font-size="14.00">address: strategyAddress (20)</text>
<polyline fill="none" stroke="black" points="1676.04,-185.5 2133.1,-185.5 "/>
<text text-anchor="middle" x="1769.25" y="-168.9" font-family="Courier New" font-size="14.00">unallocated (12)</text>
<polyline fill="none" stroke="black" points="1862.46,-160.7 1862.46,-185.5 "/>
<text text-anchor="middle" x="1997.67" y="-168.9" font-family="Courier New" font-size="14.00">address: depositToken (20)</text>
</g>
<!-- 6&#45;&gt;5 -->
<g id="edge7" class="edge">
<title>6:34&#45;&gt;5</title>
<path fill="none" stroke="black" d="M1502.58,-230.7C1518.68,-230.7 1535.19,-230.57 1551.87,-230.33"/>
<polygon fill="black" stroke="black" points="1552.32,-233.82 1562.26,-230.17 1552.21,-226.82 1552.32,-233.82"/>
</g>
</g>
</svg>
